<svg xmlns="http://www.w3.org/2000/svg" viewBox="0 0 3784.81 1161.8" xmlns:v="https://vecta.io/nano"><path d="M162.87 658.37h118.58c0 41.61-9.47 60.49-25.25 102.1 51.78-27.66 101.5-41.4 153.15-41.28 58.13.14 100.23 16.36 121.11 48.56 21.23 32.22 14.3 80.19-17.8 143.99-15.9 32.14-32.01 60.31-47.89 84.53-15.94 24.23-30.49 43.83-45.08 58.79-14.6 14.98-30.41 27.13-48.3 36.46-17.88 9.34-35.63 15.74-53.86 19.21-18.22 3.46-38.83 5.23-61.93 5.31-58.86.21-105.02-14.84-131.25-45.23-2.88 14.1-4.83 28.19-5.64 42.29l-118.72.4c9.13-159.43 162.87-295.71 162.87-455.14zm27.1 233.38l-26.21 53.77c-.05 20.4 7.37 33.89 21.28 40.43 13.91 6.55 37.39 9.79 70.26 9.74 58.42-.1 97.28-27.06 123.88-80.9 4.45-9.05 7.94-17.41 10.44-25.11 2.49-7.69 4.03-14.14 4.6-19.34.56-5.19-.04-9.95-1.79-14.25-1.77-4.3-3.31-7.69-4.63-10.19-1.32-2.48-4.25-4.64-8.79-6.46-4.54-1.8-7.83-3.06-9.87-3.74s-5.83-1.25-11.37-1.71l-9.58-.69h-8.89c-69.37-.06-118.88 19.42-149.34 58.45zM830.6 718.26c25.03.06 47.13 1.58 66.25 4.55 19.11 2.97 37.38 8.86 54.44 17.65 17.04 8.8 29.51 20.39 36.89 34.77 7.4 14.39 9.66 33.58 6.23 57.58-3.35 24.01-13.75 52.14-29.64 84.44-18.11 36.79-36.88 68.18-56.12 94.21-19.34 26.04-39.2 46.61-61.72 61.7s-46.24 25.95-72.52 32.55c-26.26 6.59-56.67 9.97-91.61 10.08-35.58.13-66.21-3.15-91.45-9.82-25.23-6.68-46.55-17.52-62.63-32.59-16.09-15.05-25.16-35.54-25.14-61.48-.09-25.93 9.06-57.4 27.28-94.42 15.53-31.59 33.61-59.35 52.71-83.27 19.17-23.92 37.68-43.07 56.09-57.49 18.42-14.41 38.22-26.11 59.86-35.09 21.63-8.98 42.66-15.13 63.43-18.46 20.77-3.34 43.3-4.97 67.66-4.91zm-122.09 286.85c29.85-.06 55-6.73 76.18-20.02 21.17-13.28 38.88-35.87 54.58-67.77 8.6-17.53 13.1-32.45 13.18-44.82.09-12.36-3.46-21.46-10.58-27.31-7.13-5.84-14.94-10.01-23.4-12.5-8.46-2.48-18.11-3.73-28.94-3.74-7.79-.01-15.95.78-24.49 2.35-8.55 1.57-17.84 4.38-27.94 8.42-10.09 4.05-19.66 9.22-28.7 15.52-9.05 6.31-18.06 14.52-27.03 24.66s-16.63 21.52-22.84 34.13c-15.35 31.09-18.21 54.06-9.6 68.9s28.78 22.22 59.59 22.17zm676.34-284.47l118.45.28c-36.1 129.34-141.44 258.68-148.84 388.02l-118.72.4c1.14-19.88 4.59-39.76 9.74-59.65-39.81 39.39-82.51 59.22-139.6 59.41-45.8.16-81.55-6.33-105.82-19.48-24.19-13.14-39.48-37.43-39.76-72.86-.4-25.56 7-57.19 22.41-94.9 14.29-37.7 46.1-94.71 74.58-171.03 3.84-10.32 7.33-20.65 10.38-30.97l117.95.28c-11.93 42.75-31.39 85.49-52.4 128.24l-.99 2.01-12.44 25.51c-2.74 5.82-6.23 14.1-10.4 24.84s-6.67 19.13-7.57 25.17c-.9 6.05-1.11 12.98-.52 20.81.57 7.83 2.98 13.75 7.12 17.76 4.12 4.02 10.16 7.6 18.13 10.71 7.94 3.12 17.85 4.67 29.67 4.65 41.62-.06 87.44-20.45 141.42-61.08 32.3-66.05 68.76-132.1 87.2-198.15zm502.29 79.86c-2.4 23.99-12.64 54.74-29.62 92.24-15.21 37.52-51.23 98.88-67.84 184.11-1.73 10.21-2.93 20.42-3.51 30.63l-118.72.4c2.42-42.35 15.4-84.69 32.99-127.04l2.52-5.99 8.64-19.62c2.11-4.65 4.96-11.41 8.68-20.29 3.71-8.86 6.45-15.84 8.11-20.95 1.65-5.09 3.48-11.53 5.5-19.29 2-7.76 2.92-13.97 2.7-18.62-.21-4.66-.95-9.65-2.2-14.97-1.26-5.32-3.68-9.53-7.25-12.65-3.57-3.11-8.43-5.66-14.59-7.67-6.16-1.99-13.49-3-21.98-3.01-21.73-.02-41.11 4.09-58.22 12.29-17.11 8.22-35.08 19.89-53.85 34.99-37.28 74.46-74.07 148.92-78.34 223.38l-118.72.4c7.4-129.29 112.7-258.58 148.78-387.86l118.45.28c-4.98 17.83-11.27 35.66-18.45 53.5l33.7-22.35c7.6-4.67 17.83-10.22 30.57-16.66 12.73-6.43 25.64-10.97 38.95-13.61 13.29-2.64 28.06-3.94 44.34-3.9 15.94.04 29.77.97 41.49 2.77 11.71 1.82 23.52 5.4 35.3 10.76 11.76 5.36 20.78 13.84 26.57 25.4 5.77 11.57 7.92 26.01 6.01 43.34zm274.5-79.03c31.79.07 59.61 3.02 83.28 8.8 23.65 5.79 42.14 13.43 55.19 22.92 13.04 9.5 22.48 20.63 28.11 33.4 5.62 12.77 7.56 25.86 5.96 39.28-1.61 13.42-6.02 27.16-13.04 41.23l-130.42 23.1c.66-1.32 1.11-3.08 1.37-5.29.25-2.2-.21-6.16-1.41-11.89-1.2-5.72-3.75-10.79-7.66-15.21-3.91-4.4-11.13-8.48-21.65-12.24-10.53-3.75-23.75-5.63-39.66-5.65-15.92-.01-30.6 1.63-44.06 4.94-13.47 3.3-24.54 7.39-33.2 12.24-8.68 4.87-16.69 10.92-24.06 18.21-7.38 7.29-13.07 13.92-17.06 19.87-3.99 5.96-7.97 12.92-11.87 20.87-3.04 6.19-5.43 11.82-7.17 16.89-1.75 5.08-3.11 10.83-4.02 17.22-.91 6.4-.21 12.04 2.08 16.88 2.27 4.86 5.77 9.38 10.47 13.55 4.69 4.2 11.88 7.38 21.51 9.56 9.62 2.2 21.23 3.27 34.79 3.25 12.2-.02 23.63-.92 34.34-2.7 10.69-1.77 19.75-4.1 27.2-6.98 7.44-2.87 14.36-6.07 20.78-9.61 6.41-3.54 11.67-7.05 15.77-10.59 4.1-3.52 7.57-6.72 10.4-9.59 2.83-2.85 4.82-5.17 5.98-6.94l1.74-2.64 108.33 20.99c-6.57 14.95-14.4 29.14-23.47 42.55-9.08 13.43-20.64 26.52-34.62 39.3-13.99 12.79-29.52 23.82-47.04 33.11-17.53 9.29-38.98 16.74-64.82 22.33-25.81 5.59-54.7 8.45-86.92 8.56-31.52.1-59.34-3.1-83.08-9.65-23.72-6.55-42.62-15.43-56.07-26.66s-23.07-25.23-27.99-42.02c-4.94-16.78-5.46-34.57-1.67-53.38 3.77-18.8 11.43-39.7 22.72-62.71 30.95-61.95 71.82-110.07 118.14-144.28 46.64-34.21 102.22-51.21 172.78-51.03zM330.42 159.13l118.21.42c0 41.51-10.66 83.03-26.54 124.54 51.77-27.59 101.42-41.31 152.98-41.19 58.02.13 100.01 16.32 120.75 48.45 21.1 32.14 13.99 80.01-18.19 143.66-15.94 32.07-32.03 60.17-47.85 84.34-15.88 24.17-30.35 43.73-44.85 58.66-14.52 14.94-30.23 27.07-48.02 36.38-17.79 9.32-35.46 15.71-53.63 19.16-18.16 3.45-38.72 5.23-61.77 5.3-58.74.2-104.96-14.81-131.3-45.12-2.81 14.06-4.67 28.13-5.36 42.19l-118.5.4c7.89-159.06 164.06-318.13 164.06-477.19zm29.69 257.66l-26.25 53.76c-.03 20.4 7.45 33.89 21.38 40.43 13.93 6.55 37.43 9.79 70.3 9.73 58.44-.11 97.1-27.06 123.75-80.89 4.46-9.04 7.96-17.41 10.48-25.1 2.51-7.68 4.07-14.14 4.66-19.34.58-5.2 0-9.95-1.74-14.25-1.75-4.3-3.28-7.7-4.59-10.19-1.31-2.48-4.23-4.64-8.76-6.45-4.54-1.8-7.82-3.06-9.86-3.74s-5.82-1.25-11.36-1.71l-9.57-.69h-8.89c-69.36-.05-118.99 19.42-149.55 58.44zm639.27-174.91c25.03.06 47.13 1.58 66.25 4.55 19.1 2.97 37.36 8.85 54.39 17.65 17.02 8.81 29.45 20.4 36.78 34.77 7.35 14.39 9.54 33.58 6.03 57.58-3.44 24-13.93 52.14-29.87 84.43-18.17 36.78-36.93 68.18-56.09 94.21-19.26 26.04-39 46.6-61.41 61.69-22.41 15.1-46.02 25.95-72.23 32.55-26.19 6.59-56.57 9.96-91.5 10.09-35.58.12-66.25-3.15-91.56-9.82-25.29-6.67-46.73-17.53-62.92-32.58-16.2-15.04-25.39-35.55-25.46-61.48-.17-25.92 8.96-57.41 27.25-94.42 15.59-31.59 33.76-59.35 52.94-83.27 19.25-23.91 37.84-43.07 56.3-57.49 18.47-14.41 38.3-26.1 59.97-35.08 21.66-8.97 42.7-15.13 63.48-18.46s43.31-4.97 67.67-4.91zM876.7 528.71c29.85-.06 54.98-6.73 76.14-20.02 21.15-13.27 38.85-35.86 54.6-67.77 8.63-17.52 13.17-32.45 13.28-44.82.12-12.35-3.39-21.46-10.5-27.31-7.12-5.84-14.91-10.01-23.36-12.49-8.45-2.47-18.1-3.73-28.92-3.74-7.79 0-15.95.78-24.5 2.35-8.56 1.57-17.86 4.37-27.97 8.42-10.11 4.04-19.69 9.23-28.75 15.52-9.07 6.31-18.11 14.52-27.1 24.66-9 10.14-16.69 21.52-22.92 34.13-15.41 31.09-18.26 54.05-9.63 68.9 8.63 14.84 28.82 22.22 59.63 22.17zm678.28-283.49l116.72.28c-36.7 129.19-142.79 258.38-148.5 387.56l-116.97.4c.88-19.86 4.12-39.72 9.12-59.58-39.44 39.35-81.77 59.16-138.78 59.35-45.72.16-81.51-6.32-105.88-19.45-24.29-13.12-39.81-37.38-40.25-72.77-.52-25.53 6.81-57.12 22.24-94.78 14.3-37.66 46.28-94.6 75.13-170.82 3.89-10.31 7.43-20.63 10.53-30.94l116.72.28c-12.14 42.74-31.85 85.49-53.02 128.23l-1 2.01-12.53 25.51c-2.76 5.82-6.27 14.1-10.45 24.84-4.18 10.73-6.69 19.13-7.58 25.17-.9 6.05-1.09 12.98-.48 20.81.59 7.83 3.03 13.75 7.19 17.76 4.15 4.01 10.23 7.6 18.23 10.71 7.99 3.12 17.93 4.67 29.79 4.65 41.78-.06 87.64-20.45 141.78-61.08 32.37-66.05 69.23-132.09 87.99-198.14zm500.58 80.27c-2.52 23.92-12.88 54.58-29.9 91.97-15.22 37.41-51.3 98.59-67.03 183.57-1.62 10.18-2.7 20.36-3.15 30.54l-118.5.4c1.87-42.34 14.58-84.69 32.09-127.03l2.51-5.99 8.62-19.62c2.11-4.65 4.96-11.41 8.68-20.29 3.72-8.86 6.47-15.85 8.14-20.94 1.66-5.1 3.51-11.53 5.54-19.29 2.02-7.75 2.96-13.97 2.76-18.62-.19-4.66-.91-9.65-2.13-14.97-1.23-5.33-3.63-9.53-7.17-12.65-3.54-3.11-8.38-5.66-14.51-7.67-6.13-2-13.44-3-21.9-3.01-21.67-.02-41.02 4.09-58.12 12.3-17.11 8.22-35.08 19.88-53.86 34.99-37.48 74.45-74.18 148.91-77.48 223.36l-119.51.41c5.7-128.91 111.39-257.83 148.25-386.74l119.25.28c-5.08 17.78-11.48 35.56-18.74 53.34l33.76-22.28c7.61-4.65 17.85-10.19 30.6-16.61 12.74-6.41 25.65-10.95 38.94-13.58 13.27-2.64 28.02-3.93 44.26-3.89 15.9.04 29.69.97 41.37 2.76 11.67 1.81 23.43 5.38 35.14 10.73 11.69 5.35 20.64 13.79 26.34 25.32 5.69 11.54 7.75 25.93 5.74 43.21zm559.07 388.06c34.82.09 64.18 4.11 87.67 12.04 23.46 7.94 41.9 20.89 54.08 38.84 12.21 17.96 15.7 42.33 9.56 73.13-5.94 30.79-22.53 67.8-45.32 111.05l-301.88.31c-3.77 11.84.34 21.49 12.14 28.92 11.79 7.44 32.71 11.12 62.53 11.07 26.1-.04 52.97-2.27 80.69-6.69 27.72-4.41 49.14-8.82 64.25-13.21l22.18-6.58c1.27 35.38 5.27 70.74 15.54 106.07-1.18.89-3.28 2.09-6.26 3.62-2.98 1.54-10.33 4.29-21.93 8.25-11.61 3.96-24.5 7.51-38.74 10.6-14.24 3.11-33.82 5.91-58.75 8.39-24.94 2.49-52.13 3.78-81.63 3.88-34.57.11-64.52-2.84-89.51-8.91-24.99-6.05-44.78-14.55-58.79-25.49-14.01-10.92-23.73-24.73-28.33-41.41-4.61-16.67-4.72-34.46-.4-53.36 4.29-18.89 12.75-40.87 25.16-65.93 31.01-61.53 72.66-109.45 121.25-143.64 48.91-34.2 105.56-51.16 176.48-50.98zm-45.89 121.07c-18.62-.02-35.37 1.73-50.28 5.23-14.91 3.51-26.75 8-35.55 13.47-8.81 5.49-15.88 10.86-21.22 16.12-5.35 5.26-9.33 10.53-11.97 15.79l181.86-.01c7.23-14.44 6.56-26.46-2.08-36.1-8.65-9.62-28.95-14.48-60.76-14.5zm-241.92-591.33c31.79.07 59.61 3.02 83.28 8.8 23.65 5.79 42.14 13.43 55.19 22.92 13.04 9.5 22.48 20.63 28.11 33.4 5.62 12.77 7.56 25.86 5.96 39.28-1.61 13.42-6.02 27.16-13.04 41.23l-130.42 23.1c.66-1.32 1.11-3.08 1.37-5.29.25-2.2-.21-6.16-1.41-11.89-1.2-5.72-3.75-10.79-7.66-15.21-3.91-4.4-11.13-8.48-21.65-12.24-10.53-3.75-23.75-5.63-39.66-5.65-15.92-.01-30.6 1.63-44.06 4.94-13.47 3.3-24.54 7.39-33.2 12.24-8.68 4.87-16.69 10.92-24.06 18.21-7.38 7.29-13.07 13.92-17.06 19.87-3.99 5.96-7.97 12.92-11.87 20.87-3.04 6.19-5.43 11.82-7.17 16.89-1.75 5.08-3.11 10.83-4.02 17.22-.91 6.4-.21 12.04 2.08 16.88 2.27 4.86 5.77 9.38 10.47 13.55 4.69 4.2 11.88 7.38 21.51 9.56 9.62 2.2 21.23 3.27 34.79 3.25 12.2-.02 23.63-.92 34.34-2.7 10.69-1.77 19.75-4.1 27.2-6.98 7.44-2.87 14.36-6.07 20.78-9.61 6.41-3.54 11.67-7.05 15.77-10.59 4.1-3.52 7.57-6.72 10.4-9.59 2.83-2.85 4.82-5.17 5.98-6.94l1.74-2.64 108.33 20.99c-6.57 14.95-14.4 29.14-23.47 42.55-9.08 13.43-20.64 26.52-34.62 39.3-13.99 12.79-29.52 23.82-47.04 33.11-17.53 9.29-38.98 16.74-64.82 22.33-25.81 5.59-54.7 8.45-86.92 8.56-31.52.1-59.34-3.1-83.08-9.65-23.72-6.55-42.62-15.43-56.07-26.66s-23.07-25.23-27.99-42.02c-4.94-16.78-5.46-34.57-1.67-53.38 3.77-18.8 11.43-39.7 22.72-62.71 30.95-61.95 71.82-110.07 118.14-144.28 46.64-34.21 102.22-51.21 172.78-51.03zm452.99-7.92c34.82.09 64.18 4.11 87.67 12.04 23.46 7.94 41.9 20.89 54.08 38.84 12.21 17.96 15.7 42.33 9.56 73.13-5.94 30.79-22.53 67.8-45.32 111.05l-301.88.31c-3.77 11.84.34 21.49 12.14 28.92 11.79 7.44 32.71 11.12 62.53 11.07 26.1-.04 52.97-2.27 80.69-6.69 27.72-4.41 49.14-8.82 64.25-13.21l22.18-6.58c1.27 35.38 5.27 70.74 15.54 106.07-1.18.89-3.28 2.09-6.26 3.62-2.98 1.54-10.33 4.29-21.93 8.25-11.61 3.96-24.5 7.51-38.74 10.6-14.24 3.11-33.82 5.91-58.75 8.39-24.94 2.49-52.13 3.78-81.63 3.88-34.57.11-64.52-2.84-89.51-8.91-24.99-6.05-44.78-14.55-58.79-25.49-14.01-10.92-23.73-24.73-28.33-41.41-4.61-16.67-4.72-34.46-.4-53.36 4.29-18.89 12.75-40.87 25.16-65.93 31.01-61.53 72.66-109.45 121.25-143.64 48.91-34.2 105.56-51.16 176.48-50.98zm-45.88 121.07c-18.62-.02-35.37 1.73-50.28 5.23-14.91 3.51-26.75 8-35.55 13.47-8.81 5.49-15.88 10.86-21.22 16.12-5.35 5.26-9.33 10.53-11.97 15.79l181.86-.01c7.23-14.44 6.56-26.46-2.08-36.1-8.65-9.62-28.95-14.48-60.76-14.5zm-464.53 667.41l-20.48 30.79-70.5 107.16 122.38-38.43c14.63-4.6 32.74-9.41 53.53-14.2-19.01-6.26-34.77-14.23-47.01-23.79-18.02-14.05-30.09-31.78-35.84-52.67-.81-2.92-1.5-5.88-2.09-8.87m490.26-382.16c-11.71 1.85-25.44 3.55-41.47 5.16-25.47 2.55-53.6 3.89-83.63 3.99h-2.11a536.6 536.6 0 0 1-19.45-.33c-11.09 12.72-21.81 26.27-32.12 40.71-.12.16-.69.79-1.71 1.71 11.19-.93 22.68-1.39 34.48-1.39h1.2c29.03.07 54.82 2.8 76.94 8.13a396.33 396.33 0 0 1 67.89-57.97m581.16-282.26l.04.03s-.02-.01-.02-.02c0 0-.01 0-.02-.01m-147.04-128.52c-31.02.01-66.35 3.22-103.27 9.93-48.55 8.9-99.71 23.66-146.22 46.64 11.1 21.76 13.45 48.76 6.96 80.43-1.61 8.1-3.86 16.64-6.85 25.85 5.04-3.75 10.42-7.4 16.12-10.92 32.21-20.03 74.2-35.69 116.35-45.73 41.95-10.09 84.23-14.76 116.53-14.76h.36c4.97 0 9.69.11 14.11.31l.41.02h.43c28.1.78 54.24 4.79 76.79 11.29 22.55 6.47 41.42 15.47 55.32 25.49a114.9 114.9 0 0 1 4.23 3.13 65.96 65.96 0 0 1-2.65 2.6c-7.71 7.35-19.45 15.75-32.71 22.89-13.25 7.19-28.07 13.24-41.8 17.02h.03c-60.07 16.56-121.33 27.8-182.56 38.74-60.32 10.84-120.66 21.25-179.65 36.9l-.5.96-.6.12-2.63.6-2.63.62-.1.03-.17.03-.77.17-2.63.59-2.63.61-.57.14-.51.14.05.05-.6.14-2.63.59-2.63.62-.86.22h-.05l-.07.01v-.06l-.33.09-.11.04h0l-.32.08-.75.25-.21.07-.08.02-.18.06h.25l-5.23 1.54-.85.29h-.1l-2.29.68-.3.1h0c-9.4 2.84-18.76 5.84-28.07 9.03 2.01 34.06 6.85 62.78 15.09 89.64.19.61.35 1.22.48 1.84 8.07-2.98 16.27-5.81 24.58-8.51 58.74-19.09 123.39-31.38 191.75-43.6 68.35-12.27 140.37-24.52 213.68-44.71h.03c28.2-7.85 55.51-20.29 79.62-35.77 12.05-7.77 23.29-16.33 33.4-25.89 10.09-9.6 19.15-20.14 26.37-32.87 3.06-5.43 5.72-11.35 7.63-17.83 1.92-6.47 3.05-13.53 3.04-20.69.03-9.63-2.1-19.22-5.52-27.33-2.55-6.12-5.72-11.47-9.1-16.15-5.08-7.03-10.58-12.66-16.17-17.69-5.6-5.02-11.36-9.45-17.3-13.74l-.04-.03c-24.27-17.41-52.54-30.21-83.4-39.12-30.75-8.85-64.15-13.79-99.14-14.8-5.8-.26-11.77-.39-17.89-.39m193.35 834.44h0m-4.85-13.65h13.79-13.79m.46-4.32h0M2837.5 721.51h0m1.78-.23h0M3313.99 0c-25.46 0-50.37.74-74.3 2h.07c-110.61 5.61-208.03 25.32-295.33 59.07-87.3 33.71-164.19 81.47-233.66 141.62l.17-.15c-11.55 9.92-23.47 19.65-35.58 29.54 31.29-9.31 65.14-13.95 102-14.05h3.07c19.7.08 37.88 1.38 54.41 3.88 44.14-30.55 91.14-55.67 142.54-75.57 77.11-29.79 164.41-47.81 267.01-53.05h.07c22.51-1.18 45.85-1.88 69.52-1.88h1.14c76.59 0 156.61 7.69 221.88 28.6 32.81 10.44 61.78 24.11 85.16 40.91 23.33 16.79 41.17 36.33 53.75 60.18 12.08 24.21 17.42 46.87 17.45 69.07-.01 16.29-2.91 32.52-9.07 49.32-9.22 25.13-26.08 51.66-52.06 78.67-25.93 26.99-60.9 54.28-104.95 80.55l.03-.02c-73.21 43.57-142.87 67.07-218.61 88.06-75.19 20.86-156.27 38.88-247.49 71.8l-153.26 43.85-52.94 14.56-15.07 3.9-3.26.76-.08.02h0l3.89 19.19 2.72 17.42.27 2.49.47 51.7h.6 0l652.76-10.01c-28.9 57.59-57.32 115.46-83.93 173.65-12.14-5.2-25.15-9.18-39.34-12.74-31.82-7.83-69.67-12.87-112.99-16.21-43.27-3.31-91.85-4.79-143.96-4.79-117.48.01-252.96 7.56-382.85 19.67l-3.57.41-.45.05-.89.11-2.67.27-2.68.29-.4.05h-.14l-2.68.28-.94.1-.45.05-2.69.27-2.67.29-.83.11-.94.09-2.68.29-.55.06v-.03l-1.12.09-2.69.27-2.67.29-.53.07h0l-1.11.09-2.68.27-2.89.33-1.6.15h0l-.33.02-.78.07-2.69.27-.17.02h-.11l-2.68.28-2.68.29-.59.07-.51.07.09.44-.54.08.09.99.12.87h-.41c1.66 33.45 5.87 61.69 13.09 87.91 141.14-14.53 293.35-23.89 420.95-23.89h.5c43.65 0 84.39 1.09 120.62 3.39 27.17 1.72 51.8 4.12 73.08 7.18 15.95 2.29 30.01 4.95 41.66 7.85 8.74 2.17 16.12 4.47 21.81 6.67 4.26 1.64 7.56 3.23 9.73 4.47 1.63.93 2.61 1.65 2.95 1.93l.12.1 9.1-9.61 4.9-2.39 68.2 22.14c42.54-98.97 92.77-198.78 143.68-299.23l34.21-67.51-75.67 1.14-390.08 5.91c51.65-14.96 101.52-27.06 151.7-40.92 78.61-21.75 158.06-48.18 241-97.62l.03-.02c66.1-39.49 117.81-82.85 154.07-130.8 18.09-23.97 32.26-49.15 41.9-75.39 9.65-26.21 14.69-53.47 14.68-80.86.04-37.58-9.5-75.03-27.33-110.42l-.16-.32-.17-.32c-19.83-38.03-48.5-68.73-81.67-92.48-24.91-17.87-52.37-32.02-81.29-43.34-43.41-16.96-90.16-27.63-137.71-34.25C3408.92 2.48 3360.56 0 3313.99 0"/></svg>